<svg xmlns="http://www.w3.org/2000/svg" xmlns:xlink="http://www.w3.org/1999/xlink" width="500" zoomAndPan="magnify" viewBox="0 0 375 374.999991" height="500" preserveAspectRatio="xMidYMid meet" version="1.0"><defs><g/><clipPath id="5efd3d43e6"><path d="M 0 127.070312 L 65.25 127.070312 L 65.25 192.320312 L 0 192.320312 Z M 0 127.070312 " clip-rule="nonzero"/></clipPath><clipPath id="4ca355236a"><path d="M 215 115 L 320 115 L 320 192 L 215 192 Z M 215 115 " clip-rule="nonzero"/></clipPath><clipPath id="16481d54b4"><path d="M 211.058594 126.535156 L 311.644531 102.152344 L 329.136719 174.316406 L 228.546875 198.695312 Z M 211.058594 126.535156 " clip-rule="nonzero"/></clipPath><clipPath id="526a6cee47"><path d="M 211.058594 126.535156 L 311.644531 102.152344 L 329.136719 174.316406 L 228.546875 198.695312 Z M 211.058594 126.535156 " clip-rule="nonzero"/></clipPath></defs><rect x="-37.5" width="450" fill="#ffffff" y="-37.499999" height="449.999989" fill-opacity="1"/><rect x="-37.5" width="450" fill="#000000" y="-37.499999" height="449.999989" fill-opacity="1"/><g clip-path="url(#5efd3d43e6)"><path fill="#9cff1e" d="M 65.226562 150.800781 L 65.226562 168.707031 C 43.539062 175.050781 40.300781 186.300781 40.300781 192.441406 L 21.644531 192.441406 C 21.644531 187.3125 22.828125 178.03125 29.953125 169.082031 L 0.0273438 169.082031 L 0.0273438 150.425781 L 29.953125 150.425781 C 22.828125 141.476562 21.644531 132.195312 21.644531 127.070312 L 40.300781 127.070312 C 40.300781 133.210938 43.539062 144.460938 65.226562 150.800781 Z M 65.226562 150.800781 " fill-opacity="1" fill-rule="nonzero"/></g><g fill="#ffffff" fill-opacity="1"><g transform="translate(70.659235, 173.304848)"><g><path d="M 0.9375 0 L 0.9375 -32.609375 L 35.40625 -32.609375 L 35.40625 -22.359375 L 13.046875 -22.359375 L 13.046875 -18.875 L 32.609375 -18.875 L 32.609375 -8.625 L 13.046875 -8.625 L 13.046875 0 Z M 0.9375 0 "/></g></g></g><g fill="#ffffff" fill-opacity="1"><g transform="translate(106.539837, 173.304848)"><g><path d="M 0.46875 0 L 13.984375 -32.609375 L 31.96875 -32.609375 L 45.46875 0 L 32.15625 0 L 29.90625 -5.875 L 16.03125 -5.875 L 13.796875 0 Z M 19.203125 -14.25 L 26.75 -14.25 L 22.96875 -24.234375 Z M 19.203125 -14.25 "/></g></g></g><g fill="#ffffff" fill-opacity="1"><g transform="translate(152.485644, 173.304848)"><g><path d="M 14.4375 0 L 14.4375 -22.359375 L 0.46875 -22.359375 L 0.46875 -32.609375 L 40.53125 -32.609375 L 40.53125 -22.359375 L 26.5625 -22.359375 L 26.5625 0 Z M 14.4375 0 "/></g></g></g><g fill="#ffffff" fill-opacity="1"><g transform="translate(193.492054, 173.304848)"><g><path d="M 0.9375 0 L 0.9375 -32.609375 L 13.046875 -32.609375 L 13.046875 0 Z M 0.9375 0 "/></g></g></g><g fill="#ffffff" fill-opacity="1"><g transform="translate(207.471509, 173.304848)"><g><path d="M 0.9375 0 L 0.9375 -32.609375 L 15.84375 -32.609375 L 25.90625 -13.984375 L 35.96875 -32.609375 L 50.875 -32.609375 L 50.875 0 L 38.765625 0 L 38.765625 -15.515625 L 29.859375 0 L 21.953125 0 L 13.046875 -15.515625 L 13.046875 0 Z M 0.9375 0 "/></g></g></g><g fill="#ffffff" fill-opacity="1"><g transform="translate(259.28869, 173.304848)"><g><path d="M 0.46875 0 L 13.984375 -32.609375 L 31.96875 -32.609375 L 45.46875 0 L 32.15625 0 L 29.90625 -5.875 L 16.03125 -5.875 L 13.796875 0 Z M 19.203125 -14.25 L 26.75 -14.25 L 22.96875 -24.234375 Z M 19.203125 -14.25 "/></g></g></g><g clip-path="url(#4ca355236a)"><g clip-path="url(#16481d54b4)"><g clip-path="url(#526a6cee47)"><path fill="#9cff1e" d="M 317.683594 136.277344 C 318.058594 137.699219 318.847656 138.550781 319.496094 139.027344 C 318.519531 140.351562 317.535156 141.667969 316.546875 142.980469 C 315.472656 142.171875 313.722656 140.453125 312.957031 137.558594 C 311.144531 139.988281 309.308594 142.398438 307.449219 144.792969 C 305.328125 147.527344 303.175781 150.238281 300.992188 152.925781 C 298.808594 155.613281 296.589844 158.277344 294.332031 160.910156 C 292.070312 163.542969 289.769531 166.140625 287.414062 168.699219 C 285.054688 171.253906 282.640625 173.769531 280.140625 176.210938 C 277.640625 178.65625 275.058594 181.035156 272.324219 183.28125 C 269.578125 185.519531 266.703125 187.65625 263.433594 189.414062 C 261.789062 190.28125 260.039062 191.058594 258.0625 191.539062 C 257.070312 191.769531 256.019531 191.921875 254.902344 191.90625 C 254.34375 191.902344 253.773438 191.84375 253.199219 191.738281 C 252.621094 191.625 252.046875 191.457031 251.484375 191.230469 C 250.929688 190.996094 250.394531 190.707031 249.898438 190.367188 C 249.449219 190.019531 248.992188 189.699219 248.59375 189.28125 C 248.167969 188.898438 247.816406 188.441406 247.460938 187.988281 C 247.304688 187.75 247.148438 187.511719 246.996094 187.269531 C 246.914062 187.148438 246.847656 187.023438 246.785156 186.898438 L 246.59375 186.519531 C 246.105469 185.507812 245.773438 184.441406 245.613281 183.410156 L 245.542969 183.023438 L 245.5 182.636719 C 245.476562 182.382812 245.441406 182.125 245.425781 181.871094 C 245.410156 181.371094 245.375 180.863281 245.398438 180.375 C 245.441406 178.40625 245.746094 176.546875 246.164062 174.757812 C 246.582031 172.96875 247.113281 171.246094 247.695312 169.5625 C 248.867188 166.191406 250.246094 162.964844 251.683594 159.789062 C 253.121094 156.617188 254.621094 153.5 256.109375 150.398438 C 257.59375 147.292969 259.070312 144.207031 260.4375 141.101562 C 261.800781 138.003906 263.085938 134.878906 264.011719 131.753906 C 264.46875 130.195312 264.828125 128.632812 265.003906 127.132812 L 265.046875 126.578125 L 265.070312 126.300781 L 265.078125 126.03125 C 265.082031 125.855469 265.089844 125.671875 265.089844 125.496094 L 265.066406 124.980469 C 265.015625 124.308594 264.902344 123.679688 264.710938 123.148438 C 264.507812 122.625 264.238281 122.195312 263.886719 121.832031 C 263.796875 121.742188 263.71875 121.644531 263.605469 121.570312 L 263.449219 121.449219 C 263.394531 121.40625 263.355469 121.363281 263.28125 121.324219 C 263.152344 121.246094 263.023438 121.164062 262.898438 121.082031 L 262.492188 120.875 C 261.941406 120.621094 261.347656 120.449219 260.707031 120.347656 C 260.070312 120.246094 259.382812 120.25 258.683594 120.300781 C 257.273438 120.40625 255.789062 120.804688 254.320312 121.335938 C 252.851562 121.882812 251.394531 122.574219 249.960938 123.351562 C 247.097656 124.917969 244.339844 126.816406 241.671875 128.851562 C 239.007812 130.890625 236.425781 133.078125 233.914062 135.351562 C 231.40625 137.628906 228.957031 139.992188 226.574219 142.417969 C 225.382812 143.632812 224.207031 144.859375 223.046875 146.101562 C 222.46875 146.726562 221.890625 147.351562 221.324219 147.980469 C 220.757812 148.601562 220.179688 149.246094 219.648438 149.859375 L 215.9375 146.671875 C 216.535156 145.984375 217.105469 145.34375 217.695312 144.695312 C 218.285156 144.046875 218.875 143.402344 219.46875 142.765625 C 220.660156 141.492188 221.863281 140.230469 223.085938 138.988281 C 225.527344 136.5 228.039062 134.078125 230.628906 131.726562 C 233.222656 129.378906 235.898438 127.105469 238.703125 124.960938 C 241.511719 122.824219 244.441406 120.796875 247.621094 119.054688 C 249.214844 118.191406 250.871094 117.398438 252.632812 116.742188 C 254.398438 116.105469 256.265625 115.582031 258.296875 115.421875 C 259.308594 115.347656 260.355469 115.34375 261.421875 115.507812 C 262.488281 115.667969 263.558594 115.976562 264.570312 116.449219 C 264.820312 116.574219 265.070312 116.695312 265.316406 116.828125 L 266.023438 117.273438 C 266.140625 117.339844 266.261719 117.441406 266.378906 117.53125 L 266.730469 117.808594 C 266.96875 117.984375 267.179688 118.203125 267.394531 118.421875 C 268.242188 119.289062 268.890625 120.359375 269.296875 121.445312 C 269.695312 122.535156 269.871094 123.617188 269.949219 124.660156 L 269.980469 125.433594 C 269.980469 125.6875 269.972656 125.9375 269.96875 126.1875 L 269.957031 126.566406 L 269.929688 126.933594 L 269.867188 127.664062 C 269.644531 129.585938 269.214844 131.390625 268.703125 133.132812 C 267.671875 136.617188 266.320312 139.875 264.914062 143.078125 C 263.503906 146.273438 262.007812 149.402344 260.519531 152.511719 C 259.03125 155.621094 257.542969 158.707031 256.140625 161.808594 C 254.738281 164.910156 253.40625 168.023438 252.320312 171.160156 C 251.777344 172.730469 251.296875 174.304688 250.929688 175.867188 C 250.558594 177.429688 250.320312 178.992188 250.289062 180.464844 C 250.269531 180.839844 250.300781 181.191406 250.308594 181.550781 C 250.320312 181.726562 250.34375 181.898438 250.359375 182.070312 L 250.386719 182.328125 L 250.433594 182.574219 C 250.535156 183.246094 250.734375 183.839844 250.992188 184.375 L 251.089844 184.574219 C 251.121094 184.640625 251.152344 184.707031 251.199219 184.765625 C 251.277344 184.882812 251.355469 185.003906 251.429688 185.128906 C 251.617188 185.347656 251.777344 185.582031 252 185.773438 C 252.191406 185.988281 252.453125 186.152344 252.675781 186.339844 C 252.894531 186.484375 253.117188 186.605469 253.355469 186.707031 C 253.59375 186.800781 253.847656 186.878906 254.113281 186.933594 C 254.386719 186.976562 254.671875 187.011719 254.976562 187.015625 C 255.585938 187.023438 256.25 186.9375 256.933594 186.777344 C 258.308594 186.445312 259.742188 185.835938 261.136719 185.09375 C 263.941406 183.59375 266.636719 181.613281 269.21875 179.5 C 271.804688 177.375 274.296875 175.085938 276.722656 172.714844 C 279.144531 170.34375 281.503906 167.886719 283.816406 165.382812 C 286.128906 162.875 288.390625 160.316406 290.621094 157.722656 C 292.847656 155.128906 295.035156 152.5 297.195312 149.839844 C 299.355469 147.183594 301.484375 144.5 303.585938 141.792969 C 305.421875 139.421875 307.242188 137.035156 309.039062 134.628906 C 306.054688 134.699219 303.929688 133.46875 302.855469 132.660156 C 303.8125 131.390625 304.761719 130.121094 305.703125 128.847656 C 306.351562 129.324219 307.390625 129.835938 308.847656 129.789062 C 310.304688 129.742188 312.195312 129.125 314.480469 127.347656 L 318.320312 130.050781 C 317.339844 132.863281 317.308594 134.847656 317.683594 136.277344 Z M 317.683594 136.277344 " fill-opacity="1" fill-rule="nonzero"/></g></g></g><g fill="#9cff1e" fill-opacity="1"><g transform="translate(80.472326, 184.199141)"><g><path d="M 0.21875 0 L 0.21875 -7.671875 L 5.921875 -7.671875 C 6.378906 -7.671875 6.820312 -7.59375 7.25 -7.4375 C 7.675781 -7.28125 8.0625 -7.039062 8.40625 -6.71875 C 8.75 -6.40625 9.015625 -6.007812 9.203125 -5.53125 C 9.398438 -5.050781 9.5 -4.484375 9.5 -3.828125 C 9.5 -3.179688 9.398438 -2.613281 9.203125 -2.125 C 9.015625 -1.644531 8.75 -1.25 8.40625 -0.9375 C 8.0625 -0.625 7.675781 -0.390625 7.25 -0.234375 C 6.820312 -0.078125 6.378906 0 5.921875 0 Z M 3.0625 -2.40625 L 5.03125 -2.40625 C 5.1875 -2.40625 5.359375 -2.414062 5.546875 -2.4375 C 5.734375 -2.457031 5.910156 -2.507812 6.078125 -2.59375 C 6.242188 -2.675781 6.378906 -2.8125 6.484375 -3 C 6.597656 -3.195312 6.65625 -3.472656 6.65625 -3.828125 C 6.65625 -4.191406 6.597656 -4.46875 6.484375 -4.65625 C 6.378906 -4.851562 6.242188 -4.992188 6.078125 -5.078125 C 5.910156 -5.160156 5.734375 -5.207031 5.546875 -5.21875 C 5.359375 -5.238281 5.1875 -5.25 5.03125 -5.25 L 3.0625 -5.25 Z M 3.0625 -2.40625 "/></g></g></g><g fill="#9cff1e" fill-opacity="1"><g transform="translate(90.083041, 184.199141)"><g><path d="M 0.21875 0 L 0.21875 -7.671875 L 8.328125 -7.671875 L 8.328125 -5.484375 L 3.0625 -5.484375 L 3.0625 -4.765625 L 8.328125 -4.765625 L 8.328125 -2.90625 L 3.0625 -2.90625 L 3.0625 -2.1875 L 8.328125 -2.1875 L 8.328125 0 Z M 0.21875 0 "/></g></g></g><g fill="#9cff1e" fill-opacity="1"><g transform="translate(98.511573, 184.199141)"><g><path d="M 3.28125 0 L 0.109375 -7.671875 L 3.234375 -7.671875 L 5.40625 -1.96875 L 7.5625 -7.671875 L 10.6875 -7.671875 L 7.515625 0 Z M 3.28125 0 "/></g></g></g><g fill="#9cff1e" fill-opacity="1"><g transform="translate(109.304472, 184.199141)"><g><path d="M 0.21875 0 L 0.21875 -7.671875 L 8.328125 -7.671875 L 8.328125 -5.484375 L 3.0625 -5.484375 L 3.0625 -4.765625 L 8.328125 -4.765625 L 8.328125 -2.90625 L 3.0625 -2.90625 L 3.0625 -2.1875 L 8.328125 -2.1875 L 8.328125 0 Z M 0.21875 0 "/></g></g></g><g fill="#9cff1e" fill-opacity="1"><g transform="translate(117.733004, 184.199141)"><g><path d="M 0.21875 0 L 0.21875 -7.671875 L 3.0625 -7.671875 L 3.0625 -2.40625 L 8.109375 -2.40625 L 8.109375 0 Z M 0.21875 0 "/></g></g></g><g fill="#9cff1e" fill-opacity="1"><g transform="translate(125.942613, 184.199141)"><g><path d="M 4.921875 0.109375 C 3.242188 0.109375 2.019531 -0.210938 1.25 -0.859375 C 0.488281 -1.515625 0.109375 -2.507812 0.109375 -3.84375 C 0.109375 -5.175781 0.488281 -6.164062 1.25 -6.8125 C 2.019531 -7.457031 3.242188 -7.78125 4.921875 -7.78125 C 6.609375 -7.78125 7.832031 -7.457031 8.59375 -6.8125 C 9.363281 -6.164062 9.75 -5.175781 9.75 -3.84375 C 9.75 -2.507812 9.363281 -1.515625 8.59375 -0.859375 C 7.832031 -0.210938 6.609375 0.109375 4.921875 0.109375 Z M 4.921875 -2.296875 C 5.484375 -2.296875 5.90625 -2.367188 6.1875 -2.515625 C 6.46875 -2.660156 6.65625 -2.847656 6.75 -3.078125 C 6.851562 -3.316406 6.90625 -3.570312 6.90625 -3.84375 C 6.90625 -4.113281 6.851562 -4.363281 6.75 -4.59375 C 6.65625 -4.820312 6.46875 -5.003906 6.1875 -5.140625 C 5.90625 -5.285156 5.484375 -5.359375 4.921875 -5.359375 C 4.359375 -5.359375 3.9375 -5.285156 3.65625 -5.140625 C 3.375 -5.003906 3.1875 -4.820312 3.09375 -4.59375 C 3 -4.363281 2.953125 -4.113281 2.953125 -3.84375 C 2.953125 -3.570312 3 -3.316406 3.09375 -3.078125 C 3.1875 -2.847656 3.375 -2.660156 3.65625 -2.515625 C 3.945312 -2.367188 4.367188 -2.296875 4.921875 -2.296875 Z M 4.921875 -2.296875 "/></g></g></g><g fill="#9cff1e" fill-opacity="1"><g transform="translate(135.794143, 184.199141)"><g><path d="M 0.21875 0 L 0.21875 -7.671875 L 6.25 -7.671875 C 6.832031 -7.671875 7.34375 -7.539062 7.78125 -7.28125 C 8.21875 -7.03125 8.554688 -6.6875 8.796875 -6.25 C 9.046875 -5.8125 9.171875 -5.304688 9.171875 -4.734375 C 9.171875 -4.160156 9.046875 -3.648438 8.796875 -3.203125 C 8.554688 -2.765625 8.21875 -2.421875 7.78125 -2.171875 C 7.34375 -1.921875 6.832031 -1.796875 6.25 -1.796875 L 3.0625 -1.796875 L 3.0625 0 Z M 3.0625 -4.203125 L 5.703125 -4.203125 C 5.796875 -4.203125 5.890625 -4.207031 5.984375 -4.21875 C 6.085938 -4.238281 6.171875 -4.285156 6.234375 -4.359375 C 6.296875 -4.429688 6.328125 -4.554688 6.328125 -4.734375 C 6.328125 -4.910156 6.296875 -5.035156 6.234375 -5.109375 C 6.171875 -5.179688 6.085938 -5.222656 5.984375 -5.234375 C 5.890625 -5.242188 5.796875 -5.25 5.703125 -5.25 L 3.0625 -5.25 Z M 3.0625 -4.203125 "/></g></g></g><g fill="#9cff1e" fill-opacity="1"><g transform="translate(145.076477, 184.199141)"><g><path d="M 0.21875 0 L 0.21875 -7.671875 L 8.328125 -7.671875 L 8.328125 -5.484375 L 3.0625 -5.484375 L 3.0625 -4.765625 L 8.328125 -4.765625 L 8.328125 -2.90625 L 3.0625 -2.90625 L 3.0625 -2.1875 L 8.328125 -2.1875 L 8.328125 0 Z M 0.21875 0 "/></g></g></g><g fill="#9cff1e" fill-opacity="1"><g transform="translate(153.505008, 184.199141)"><g><path d="M 0.21875 0 L 0.21875 -7.671875 L 6.25 -7.671875 C 6.832031 -7.671875 7.34375 -7.539062 7.78125 -7.28125 C 8.21875 -7.03125 8.554688 -6.6875 8.796875 -6.25 C 9.046875 -5.8125 9.171875 -5.304688 9.171875 -4.734375 C 9.171875 -4.179688 9.050781 -3.679688 8.8125 -3.234375 C 8.570312 -2.796875 8.242188 -2.453125 7.828125 -2.203125 L 9.171875 0 L 5.8125 0 L 4.75 -1.796875 L 3.0625 -1.796875 L 3.0625 0 Z M 3.0625 -4.203125 L 5.703125 -4.203125 C 5.796875 -4.203125 5.890625 -4.207031 5.984375 -4.21875 C 6.085938 -4.238281 6.171875 -4.285156 6.234375 -4.359375 C 6.296875 -4.429688 6.328125 -4.554688 6.328125 -4.734375 C 6.328125 -4.910156 6.296875 -5.035156 6.234375 -5.109375 C 6.171875 -5.179688 6.085938 -5.222656 5.984375 -5.234375 C 5.890625 -5.242188 5.796875 -5.25 5.703125 -5.25 L 3.0625 -5.25 Z M 3.0625 -4.203125 "/></g></g></g></svg>